<?xml version="1.0" encoding="iso-8859-1"?>
<!-- Generator: Adobe Illustrator 17.1.0, SVG Export Plug-In . SVG Version: 6.00 Build 0)  -->
<!DOCTYPE svg PUBLIC "-//W3C//DTD SVG 1.1//EN" "http://www.w3.org/Graphics/SVG/1.1/DTD/svg11.dtd">
<svg version="1.1" id="Capa_1" xmlns="http://www.w3.org/2000/svg" xmlns:xlink="http://www.w3.org/1999/xlink" x="0px" y="0px"
	 viewBox="0 0 475.801 475.801" style="enable-background:new 0 0 475.801 475.801;" xml:space="preserve">
<path d="M237.9,204.801h-32.8c-14.282,0-25.9,11.618-25.9,25.899v58.4c0,4.143,3.358,7.5,7.5,7.5h51.2c4.142,0,7.5-3.357,7.5-7.5
	v-76.8C245.4,208.158,242.042,204.801,237.9,204.801z M194.2,230.7c0-6.01,4.89-10.899,10.9-10.899h25.3v25.958
	c0,8.105-6.594,14.7-14.7,14.7h-6.8c-8.106,0-14.7-6.595-14.7-14.7V230.7z M194.2,281.601V271.55
	c4.338,2.482,9.354,3.909,14.7,3.909h6.8c5.346,0,10.362-1.427,14.7-3.909v10.051H194.2z M194.2,340.301v64
	c0,4.143-3.358,7.5-7.5,7.5s-7.5-3.357-7.5-7.5v-64c0-4.143,3.358-7.5,7.5-7.5S194.2,336.158,194.2,340.301z M194.2,429.9v12.8
	c0,4.143-3.358,7.5-7.5,7.5s-7.5-3.357-7.5-7.5v-12.8c0-4.143,3.358-7.5,7.5-7.5S194.2,425.758,194.2,429.9z M232.601,314.7
	c0,4.143-3.358,7.5-7.5,7.5h-25.6c-4.142,0-7.5-3.357-7.5-7.5s3.358-7.5,7.5-7.5h25.6C229.243,307.2,232.601,310.558,232.601,314.7z
	 M314.7,153.601h-2.633V7.5c0-4.143-3.358-7.5-7.5-7.5h-30.933c-4.142,0-7.5,3.357-7.5,7.5v146.101H263.5
	c-4.142,0-7.5,3.357-7.5,7.5v18.1h-59.4c-23.71,0-43,19.29-43,43v246.101c0,4.143,3.358,7.5,7.5,7.5h153.6
	c4.142,0,7.5-3.357,7.5-7.5V186.7v-25.6C322.2,156.958,318.842,153.601,314.7,153.601z M281.134,15h15.933v138.601h-15.933V15z
	 M271,168.601h2.633h30.933h2.633v10.6H271V168.601z M307.2,460.801h-138.6V222.2c0-15.439,12.561-28,28-28h66.9h43.7V460.801z
	 M296.601,26.304v5.268c0,4.143-3.358,7.5-7.5,7.5s-7.5-3.357-7.5-7.5v-5.268c0-4.143,3.358-7.5,7.5-7.5
	S296.601,22.161,296.601,26.304z"/>
<g>
</g>
<g>
</g>
<g>
</g>
<g>
</g>
<g>
</g>
<g>
</g>
<g>
</g>
<g>
</g>
<g>
</g>
<g>
</g>
<g>
</g>
<g>
</g>
<g>
</g>
<g>
</g>
<g>
</g>
</svg>
