<?xml version="1.0" encoding="iso-8859-1"?>
<!-- Generator: Adobe Illustrator 19.0.0, SVG Export Plug-In . SVG Version: 6.00 Build 0)  -->
<svg version="1.1" id="Layer_1" xmlns="http://www.w3.org/2000/svg" xmlns:xlink="http://www.w3.org/1999/xlink" x="0px" y="0px"
	 viewBox="0 0 512 512" style="enable-background:new 0 0 512 512;" xml:space="preserve">
<g>
	<g>
		<path d="M469.099,192.782c0.441-5.587,0.672-11.232,0.672-16.931V122.89H43.247v52.962c0,5.698,0.231,11.343,0.672,16.931H0
			v30.537h48.579c13.059,57.227,49.201,105.761,98.074,135.255H61.121v30.537h390.775v-30.537h-85.531
			c48.873-29.493,85.015-78.029,98.074-135.255H512v-30.537H469.099z M289.937,200.347h30.537v25.031h-30.537V200.347z
			 M296.124,243.485v25.03h-30.537v-25.03H296.124z M241.241,200.347h30.537v25.031h-30.537V200.347z M247.43,243.485v25.03h-30.537
			v-25.03H247.43z M192.545,200.347h30.537v25.031h-30.537V200.347z M143.849,225.378v-25.031h30.537v25.031H143.849z
			 M168.197,243.485h30.537v25.03h-30.537V243.485z M223.082,311.652h-30.537v-25.031h30.537V311.652z M271.777,311.652h-30.537
			v-25.031h30.537V311.652z M320.472,311.652h-30.537v-25.031h30.537V311.652z M344.821,268.514h-30.537v-25.03h30.537V268.514z
			 M369.169,225.378h-30.537v-25.031h30.537V225.378z"/>
	</g>
</g>
</svg>
