<?xml version="1.0" encoding="iso-8859-1"?>
<!-- Generator: Adobe Illustrator 19.0.0, SVG Export Plug-In . SVG Version: 6.00 Build 0)  -->
<svg version="1.1" id="Layer_1" xmlns="http://www.w3.org/2000/svg" xmlns:xlink="http://www.w3.org/1999/xlink" x="0px" y="0px"
	 viewBox="0 0 512 512" style="enable-background:new 0 0 512 512;" xml:space="preserve">
<g>
	<g>
		<path d="M447.955,126.838C442.698,56.017,383.397,0,311.254,0c-75.588,0-137.082,61.494-137.082,137.081V322.58h-0.001v58.819
			h0.001v30.417h-0.001v100.183h-15.209h-15.209V411.816H51.946V512h36.301h85.925h83.729h85.888h36.301V411.816h-91.772v100.183
			H273.11h-15.209V358.881V322.58v-47.104V137.081c0-29.419,23.934-53.353,53.354-53.353c26.23,0,48.082,19.03,52.517,44.005
			c-6.611,5.123-10.878,13.133-10.878,22.124v32.102c0,15.432,12.554,27.986,27.986,27.986h51.188
			c15.432,0,27.986-12.554,27.986-27.986v-32.102C460.052,140.324,455.256,131.893,447.955,126.838z"/>
	</g>
</g>
<g>
	<g>
		<path d="M416.427,232.985l-9.955-9.388l-9.955,9.389c-2.742,2.585-26.786,26.038-26.786,52.853
			c0,20.26,16.482,36.742,36.742,36.742c20.26,0,36.743-16.482,36.743-36.742C443.215,259.022,419.168,235.571,416.427,232.985z"/>
	</g>
</g>
<g>
	<g>
		<path d="M51.946,358.881v22.518h91.807V322.58H88.247C68.23,322.58,51.946,338.865,51.946,358.881z"/>
	</g>
</g>
<g>
	<g>
		<path d="M343.79,322.58h-55.471v58.819h91.772v-22.518C380.09,338.864,363.806,322.58,343.79,322.58z"/>
	</g>
</g>
<g>
</g>
<g>
</g>
<g>
</g>
<g>
</g>
<g>
</g>
<g>
</g>
<g>
</g>
<g>
</g>
<g>
</g>
<g>
</g>
<g>
</g>
<g>
</g>
<g>
</g>
<g>
</g>
<g>
</g>
</svg>
