<?xml version="1.0"?>
<svg xmlns="http://www.w3.org/2000/svg" viewBox="0 0 50 50">
    <path style="line-height:normal;text-indent:0;text-align:start;text-decoration-line:none;text-decoration-style:solid;text-decoration-color:#000;text-transform:none;block-progression:tb;isolation:auto;mix-blend-mode:normal" d="M 13 3 A 1.0001 1.0001 0 1 0 13 5 L 15.042969 5 C 15.255174 9.1453651 16.731845 11.891139 18.265625 13.552734 C 18.41558 13.715186 18.566492 13.856652 18.716797 14 L 10 14 A 1.0001 1.0001 0 1 0 10 16 L 12.042969 16 C 12.260829 21.635771 14.237134 25.171833 16.292969 27.222656 C 16.581127 27.510113 16.86971 27.766098 17.15625 28 L 6 28 A 1.0001 1.0001 0 1 0 6 30 L 9.0214844 30 C 9.2483259 37.573333 12.016337 41.913526 14.865234 44.251953 C 17.838332 46.692326 20.904297 46.996094 20.904297 46.996094 A 1.0001 1.0001 0 0 0 21 47 L 29 47 A 1.0001 1.0001 0 0 0 29.087891 46.996094 C 29.087891 46.996094 32.157101 46.717454 35.132812 44.287109 C 37.984861 41.95776 40.752823 37.615095 40.978516 30 L 44 30 A 1.0001 1.0001 0 1 0 44 28 L 32.84375 28 C 33.13029 27.766098 33.418873 27.510113 33.707031 27.222656 C 35.762866 25.171836 37.739171 21.635771 37.957031 16 L 40 16 A 1.0001 1.0001 0 1 0 40 14 L 31.302734 14 C 31.446 13.863365 31.589555 13.730254 31.732422 13.576172 C 33.26875 11.919244 34.745699 9.1700173 34.957031 5 L 37 5 A 1.0001 1.0001 0 1 0 37 3 L 34 3 L 16 3 L 13 3 z M 17.082031 5 L 32.917969 5 C 32.708435 8.6511763 31.493672 10.894455 30.267578 12.216797 C 29.014085 13.568689 27.942006 13.949951 27.794922 14 L 22.210938 14 C 22.061097 13.947454 20.98839 13.555782 19.734375 12.197266 C 18.507024 10.867636 17.292577 8.6245007 17.082031 5 z M 14.083984 16 L 35.916016 16 C 35.696336 21.114677 33.997529 24.106235 32.292969 25.806641 C 30.533406 27.561914 28.947295 27.972081 28.835938 28 L 21.164062 28 C 21.052706 27.972081 19.466594 27.561914 17.707031 25.806641 C 16.002471 24.106235 14.303664 21.114677 14.083984 16 z M 11.087891 30 L 38.912109 30 C 38.676878 37.052686 36.268751 40.776859 33.867188 42.738281 C 31.357347 44.788136 28.957278 44.997616 28.929688 45 L 21.080078 45 C 21.055408 44.9977 18.648768 44.768617 16.134766 42.705078 C 13.731367 40.732325 11.324216 37.009252 11.087891 30 z" font-weight="400" font-family="sans-serif" white-space="normal" overflow="visible"/>
</svg>
